<?xml version="1.0" standalone="no"?>
<!DOCTYPE svg PUBLIC "-//W3C//DTD SVG 20010904//EN"
 "http://www.w3.org/TR/2001/REC-SVG-20010904/DTD/svg10.dtd">
<svg version="1.0" xmlns="http://www.w3.org/2000/svg"
 width="512.000000pt" height="512.000000pt" viewBox="0 0 512.000000 512.000000"
 preserveAspectRatio="xMidYMid meet">

<g transform="translate(0.000000,512.000000) scale(0.100000,-0.100000)"
fill="#000000" stroke="none">
<path d="M1102 4460 c-195 -51 -354 -196 -423 -383 -22 -59 -23 -79 -27 -377
l-3 -315 23 -35 c65 -96 204 -100 270 -8 22 32 23 40 28 313 5 267 6 282 29
333 14 31 42 69 68 92 74 65 102 70 393 70 249 0 258 1 300 23 50 26 90 90 90
141 0 55 -40 118 -90 144 -43 21 -54 22 -315 21 -232 0 -280 -3 -343 -19z"/>
<path d="M3360 4458 c-50 -26 -90 -89 -90 -144 0 -51 40 -115 90 -141 42 -22
51 -23 300 -23 291 0 319 -5 393 -70 26 -23 54 -61 68 -92 23 -51 24 -66 29
-333 5 -273 6 -281 28 -313 66 -92 205 -88 270 8 l23 35 -3 315 c-4 298 -5
318 -27 377 -51 139 -161 265 -290 331 -122 63 -180 72 -483 72 -254 0 -265
-1 -308 -22z"/>
<path d="M512 2703 c-55 -27 -77 -68 -77 -143 0 -53 4 -71 24 -97 51 -68 -121
-63 2101 -63 2229 0 2053 -5 2103 64 31 44 31 148 0 192 -50 69 126 64 -2105
64 -1834 0 -2016 -2 -2046 -17z"/>
<path d="M757 1836 c-46 -17 -81 -48 -97 -86 -8 -19 -10 -119 -8 -336 4 -292
5 -312 27 -371 64 -175 199 -305 388 -375 53 -20 81 -22 353 -25 292 -4 296
-4 340 19 50 26 90 89 90 144 0 51 -40 115 -90 141 -42 22 -51 23 -300 23
-291 0 -319 5 -393 70 -26 23 -54 61 -68 92 -23 51 -24 66 -29 333 -5 273 -6
281 -28 313 -42 58 -119 82 -185 58z"/>
<path d="M4257 1836 c-42 -15 -72 -39 -90 -71 -8 -13 -14 -115 -17 -300 -5
-267 -6 -282 -29 -333 -14 -31 -42 -69 -68 -92 -74 -65 -102 -70 -393 -70
-249 0 -258 -1 -300 -23 -88 -46 -113 -151 -57 -236 46 -69 70 -73 403 -69
265 4 294 6 347 26 189 70 324 200 388 375 22 59 23 79 27 377 l3 315 -23 35
c-43 63 -122 91 -191 66z"/>
</g>
</svg>
